<svg width="1920" height="960" viewBox="0 0 1920 960" fill="none" xmlns="http://www.w3.org/2000/svg">
<path d="M1042.82 472.192C1041.79 473.045 1039.87 474.197 1037.06 475.648C1034.33 477.099 1030.95 478.379 1026.94 479.488C1022.93 480.597 1018.5 481.109 1013.63 481.024C1006.21 480.853 999.552 479.531 993.664 477.056C987.861 474.496 982.912 471.04 978.816 466.688C974.805 462.336 971.733 457.344 969.6 451.712C967.467 446.08 966.4 440.064 966.4 433.664C966.4 426.496 967.467 419.925 969.6 413.952C971.819 407.979 974.933 402.816 978.944 398.464C983.04 394.112 987.904 390.741 993.536 388.352C999.168 385.963 1005.4 384.768 1012.22 384.768C1018.54 384.768 1024.13 385.621 1028.99 387.328C1033.86 389.035 1037.82 390.869 1040.9 392.832L1033.6 410.368C1031.47 408.747 1028.61 407.083 1025.02 405.376C1021.53 403.584 1017.47 402.688 1012.86 402.688C1009.28 402.688 1005.82 403.456 1002.5 404.992C999.253 406.443 996.352 408.533 993.792 411.264C991.317 413.995 989.355 417.195 987.904 420.864C986.453 424.448 985.728 428.373 985.728 432.64C985.728 437.163 986.368 441.301 987.648 445.056C989.013 448.811 990.933 452.053 993.408 454.784C995.883 457.429 998.827 459.477 1002.24 460.928C1005.74 462.379 1009.66 463.104 1014.02 463.104C1019.05 463.104 1023.36 462.293 1026.94 460.672C1030.53 459.051 1033.26 457.344 1035.14 455.552L1042.82 472.192ZM1058.47 480V379.008H1076V435.328L1075.87 433.152C1077.84 429.653 1080.61 426.837 1084.19 424.704C1087.78 422.485 1092.17 421.376 1097.38 421.376C1102.67 421.376 1107.06 422.955 1110.56 426.112C1114.15 429.184 1115.98 433.195 1116.07 438.144V480H1098.15V444.8C1098.06 442.325 1097.38 440.363 1096.1 438.912C1094.9 437.376 1092.86 436.608 1089.95 436.608C1087.22 436.608 1084.83 437.504 1082.79 439.296C1080.74 441.088 1079.16 443.52 1078.05 446.592C1076.94 449.664 1076.39 453.205 1076.39 457.216V480H1058.47ZM1158.02 481.536C1152.81 481.536 1148.08 480.512 1143.81 478.464C1139.63 476.331 1136.3 473.088 1133.83 468.736C1131.35 464.384 1130.11 458.837 1130.11 452.096C1130.11 445.781 1131.39 440.32 1133.95 435.712C1136.51 431.104 1139.88 427.563 1144.07 425.088C1148.25 422.528 1152.68 421.248 1157.38 421.248C1162.92 421.248 1167.11 422.187 1169.92 424.064C1172.82 425.856 1175.21 427.861 1177.09 430.08L1176.32 432.256L1177.99 424.064H1194.63V480H1176.71V467.84L1178.11 471.68C1177.94 471.68 1177.43 472.192 1176.58 473.216C1175.72 474.155 1174.44 475.307 1172.74 476.672C1171.12 477.952 1169.07 479.061 1166.59 480C1164.2 481.024 1161.35 481.536 1158.02 481.536ZM1163.14 466.944C1165.27 466.944 1167.19 466.645 1168.9 466.048C1170.6 465.365 1172.1 464.427 1173.38 463.232C1174.66 461.952 1175.77 460.373 1176.71 458.496V444.8C1176.02 442.923 1175 441.344 1173.63 440.064C1172.27 438.699 1170.65 437.675 1168.77 436.992C1166.89 436.224 1164.8 435.84 1162.5 435.84C1159.94 435.84 1157.55 436.523 1155.33 437.888C1153.2 439.168 1151.49 440.96 1150.21 443.264C1148.93 445.568 1148.29 448.213 1148.29 451.2C1148.29 454.187 1148.97 456.875 1150.34 459.264C1151.7 461.653 1153.5 463.531 1155.71 464.896C1158.02 466.261 1160.49 466.944 1163.14 466.944ZM1218.34 399.488H1236.26V423.808H1249.83V437.76H1236.26V480H1218.34V437.76H1209.64V423.808H1218.34V399.488ZM1297.41 480L1339.91 382.08H1340.93L1383.43 480H1361.92L1334.79 411.136L1348.23 401.92L1315.72 480H1297.41ZM1326.47 445.952H1354.76L1361.28 461.568H1320.71L1326.47 445.952ZM1394.22 379.008H1412.14V480H1394.22V379.008ZM1458.11 481.536C1451.28 481.536 1445.48 480.256 1440.7 477.696C1436.01 475.136 1432.43 471.595 1429.95 467.072C1427.48 462.549 1426.24 457.344 1426.24 451.456C1426.24 445.824 1427.69 440.747 1430.59 436.224C1433.49 431.701 1437.38 428.117 1442.24 425.472C1447.1 422.741 1452.52 421.376 1458.5 421.376C1466.52 421.376 1473.09 423.723 1478.21 428.416C1483.41 433.024 1486.78 439.723 1488.32 448.512L1444.8 462.336L1440.83 452.608L1472.32 441.984L1468.61 443.648C1467.92 441.429 1466.69 439.509 1464.9 437.888C1463.19 436.181 1460.59 435.328 1457.09 435.328C1454.44 435.328 1452.1 435.968 1450.05 437.248C1448.08 438.443 1446.55 440.192 1445.44 442.496C1444.42 444.715 1443.9 447.36 1443.9 450.432C1443.9 453.931 1444.54 456.875 1445.82 459.264C1447.1 461.568 1448.85 463.317 1451.07 464.512C1453.29 465.707 1455.76 466.304 1458.5 466.304C1460.46 466.304 1462.34 465.963 1464.13 465.28C1466 464.597 1467.84 463.701 1469.63 462.592L1477.57 475.904C1474.58 477.611 1471.34 478.976 1467.84 480C1464.43 481.024 1461.18 481.536 1458.11 481.536ZM1517.47 424.064L1519.13 439.424L1518.75 437.12C1520.37 433.792 1522.59 430.976 1525.41 428.672C1528.22 426.283 1530.99 424.448 1533.73 423.168C1536.54 421.888 1538.67 421.248 1540.13 421.248L1539.23 439.168C1535.05 438.656 1531.46 439.339 1528.48 441.216C1525.49 443.093 1523.19 445.568 1521.57 448.64C1519.94 451.712 1519.13 454.869 1519.13 458.112V480H1501.34V424.064H1517.47ZM1559.09 399.488H1577.01V423.808H1590.58V437.76H1577.01V480H1559.09V437.76H1550.39V423.808H1559.09V399.488ZM1622.39 481.152C1617.78 481.152 1613.47 480.341 1609.46 478.72C1605.54 477.099 1602.21 474.837 1599.48 471.936L1606.9 462.08C1609.63 464.555 1612.15 466.347 1614.46 467.456C1616.85 468.48 1618.98 468.992 1620.86 468.992C1622.31 468.992 1623.59 468.864 1624.7 468.608C1625.89 468.267 1626.83 467.797 1627.51 467.2C1628.19 466.517 1628.54 465.664 1628.54 464.64C1628.54 463.189 1627.94 462.037 1626.74 461.184C1625.63 460.331 1624.18 459.648 1622.39 459.136C1620.6 458.539 1618.68 457.941 1616.63 457.344C1611.51 455.723 1607.8 453.376 1605.5 450.304C1603.28 447.147 1602.17 443.733 1602.17 440.064C1602.17 437.248 1602.89 434.432 1604.34 431.616C1605.88 428.715 1608.27 426.325 1611.51 424.448C1614.84 422.485 1619.11 421.504 1624.31 421.504C1629.01 421.504 1632.97 421.973 1636.22 422.912C1639.46 423.851 1642.53 425.387 1645.43 427.52L1638.65 438.016C1637.03 436.736 1635.19 435.669 1633.14 434.816C1631.18 433.877 1629.35 433.365 1627.64 433.28C1626.1 433.195 1624.78 433.365 1623.67 433.792C1622.65 434.219 1621.84 434.773 1621.24 435.456C1620.64 436.139 1620.34 436.864 1620.34 437.632C1620.26 439.253 1620.86 440.533 1622.14 441.472C1623.5 442.411 1625.21 443.136 1627.26 443.648C1629.3 444.16 1631.31 444.757 1633.27 445.44C1636 446.293 1638.35 447.445 1640.31 448.896C1642.27 450.347 1643.77 452.096 1644.79 454.144C1645.9 456.107 1646.46 458.496 1646.46 461.312C1646.46 464.725 1645.56 467.968 1643.77 471.04C1642.06 474.027 1639.42 476.459 1635.83 478.336C1632.33 480.213 1627.85 481.152 1622.39 481.152Z" fill="#151515"/>
<path d="M976.06 538V513.988H978.868L987.76 527.632L985.996 528.028L995.392 513.988H998.2V538H995.608V516.58H996.76L986.86 530.476L977.716 516.868L978.652 515.536V538H976.06ZM1010.34 538.54C1009.55 538.54 1008.74 538.456 1007.93 538.288C1007.13 538.12 1006.39 537.832 1005.69 537.424C1005.02 537.016 1004.47 536.464 1004.04 535.768C1003.63 535.048 1003.43 534.148 1003.43 533.068C1003.43 531.58 1003.7 530.392 1004.25 529.504C1004.83 528.592 1005.61 527.944 1006.59 527.56C1007.6 527.152 1008.75 526.948 1010.05 526.948C1011.03 526.948 1011.89 527.008 1012.61 527.128C1013.33 527.248 1013.96 527.428 1014.51 527.668C1015.09 527.884 1015.61 528.136 1016.06 528.424L1016.57 530.8C1016.01 530.392 1015.21 530.044 1014.15 529.756C1013.12 529.444 1011.98 529.288 1010.73 529.288C1009.22 529.288 1008.06 529.576 1007.24 530.152C1006.43 530.728 1006.02 531.568 1006.02 532.672C1006.02 533.56 1006.26 534.268 1006.74 534.796C1007.24 535.324 1007.87 535.696 1008.61 535.912C1009.38 536.128 1010.16 536.236 1010.95 536.236C1012.51 536.236 1013.69 536.128 1014.48 535.912C1015.29 535.672 1015.7 535.144 1015.7 534.328V526.084C1015.7 524.692 1015.29 523.672 1014.48 523.024C1013.66 522.376 1012.5 522.052 1010.99 522.052C1010.03 522.052 1009.01 522.196 1007.93 522.484C1006.87 522.748 1005.96 523.18 1005.19 523.78V521.188C1005.93 520.708 1006.93 520.348 1008.18 520.108C1009.43 519.844 1010.64 519.712 1011.81 519.712C1012.61 519.712 1013.34 519.796 1014.01 519.964C1014.68 520.108 1015.28 520.336 1015.81 520.648C1016.34 520.936 1016.78 521.32 1017.14 521.8C1017.53 522.256 1017.81 522.796 1018.01 523.42C1018.22 524.02 1018.33 524.704 1018.33 525.472V534.184C1018.33 535.456 1017.95 536.404 1017.18 537.028C1016.43 537.652 1015.45 538.06 1014.23 538.252C1013.03 538.444 1011.73 538.54 1010.34 538.54ZM1026.1 527.236L1033.98 520.036H1037.22L1026.67 529.36L1026.1 527.236ZM1026.67 538H1024.08V513.196H1026.67V538ZM1027.39 526.804L1038.52 538H1035.06L1025.63 528.46L1027.39 526.804ZM1048.26 538.54C1046.56 538.54 1045.08 538.192 1043.84 537.496C1042.59 536.776 1041.63 535.708 1040.96 534.292C1040.28 532.876 1039.95 531.112 1039.95 529C1039.95 525.904 1040.64 523.588 1042.04 522.052C1043.45 520.492 1045.38 519.712 1047.83 519.712C1049.75 519.712 1051.29 520.144 1052.44 521.008C1053.62 521.872 1054.46 523.036 1054.96 524.5C1055.46 525.964 1055.7 527.62 1055.68 529.468H1041.24L1041.42 527.092H1053.99L1052.98 527.452C1052.91 525.652 1052.45 524.308 1051.61 523.42C1050.8 522.532 1049.54 522.088 1047.83 522.088C1046.66 522.088 1045.67 522.304 1044.88 522.736C1044.11 523.168 1043.54 523.924 1043.15 525.004C1042.77 526.06 1042.58 527.548 1042.58 529.468C1042.58 531.652 1043.08 533.32 1044.09 534.472C1045.12 535.6 1046.56 536.164 1048.41 536.164C1049.3 536.164 1050.11 536.104 1050.86 535.984C1051.6 535.84 1052.28 535.648 1052.91 535.408C1053.53 535.168 1054.08 534.904 1054.56 534.616V537.28C1053.7 537.688 1052.74 538 1051.68 538.216C1050.65 538.432 1049.51 538.54 1048.26 538.54ZM1065.61 538.54C1064.32 538.54 1063.22 538.408 1062.34 538.144C1061.47 537.88 1060.57 537.508 1059.64 537.028V534.292C1060.38 534.7 1061.04 535.048 1061.62 535.336C1062.19 535.624 1062.78 535.84 1063.38 535.984C1063.98 536.104 1064.66 536.164 1065.43 536.164C1066.63 536.164 1067.6 535.9 1068.35 535.372C1069.12 534.844 1069.5 534.16 1069.5 533.32C1069.5 532.648 1069.31 532.132 1068.92 531.772C1068.56 531.412 1068.1 531.112 1067.52 530.872C1066.94 530.632 1066.34 530.38 1065.72 530.116C1065.02 529.924 1064.32 529.72 1063.6 529.504C1062.9 529.264 1062.25 528.964 1061.65 528.604C1061.08 528.22 1060.61 527.74 1060.25 527.164C1059.89 526.564 1059.71 525.796 1059.71 524.86C1059.71 523.948 1059.89 523.168 1060.25 522.52C1060.63 521.872 1061.12 521.344 1061.72 520.936C1062.32 520.504 1063 520.192 1063.74 520C1064.48 519.808 1065.23 519.712 1065.97 519.712C1067.05 519.712 1067.98 519.856 1068.74 520.144C1069.51 520.432 1070.3 520.756 1071.12 521.116V523.708C1070.21 523.228 1069.39 522.844 1068.67 522.556C1067.95 522.244 1067.1 522.088 1066.12 522.088C1065.13 522.088 1064.24 522.292 1063.45 522.7C1062.68 523.084 1062.3 523.684 1062.3 524.5C1062.3 525.172 1062.49 525.712 1062.88 526.12C1063.28 526.504 1063.81 526.816 1064.46 527.056C1065.11 527.272 1065.8 527.488 1066.55 527.704C1067.15 527.896 1067.77 528.112 1068.42 528.352C1069.07 528.568 1069.67 528.868 1070.22 529.252C1070.77 529.612 1071.22 530.092 1071.55 530.692C1071.91 531.292 1072.09 532.06 1072.09 532.996C1072.09 534.268 1071.77 535.324 1071.12 536.164C1070.47 536.98 1069.64 537.58 1068.64 537.964C1067.65 538.348 1066.64 538.54 1065.61 538.54ZM1094.92 538.54C1093.34 538.54 1091.98 538.264 1090.85 537.712C1089.72 537.16 1088.86 536.356 1088.26 535.3C1087.68 534.244 1087.4 532.948 1087.4 531.412V520.036H1089.99V530.836C1089.99 532.66 1090.38 534.004 1091.18 534.868C1091.99 535.708 1093.24 536.128 1094.92 536.128C1096.6 536.128 1097.84 535.708 1098.63 534.868C1099.44 534.004 1099.85 532.66 1099.85 530.836V520.036H1102.44V531.412C1102.44 533.692 1101.78 535.456 1100.46 536.704C1099.17 537.928 1097.32 538.54 1094.92 538.54ZM1113.28 538.54C1111.99 538.54 1110.9 538.408 1110.01 538.144C1109.14 537.88 1108.24 537.508 1107.31 537.028V534.292C1108.05 534.7 1108.71 535.048 1109.29 535.336C1109.86 535.624 1110.45 535.84 1111.05 535.984C1111.65 536.104 1112.34 536.164 1113.1 536.164C1114.3 536.164 1115.28 535.9 1116.02 535.372C1116.79 534.844 1117.17 534.16 1117.17 533.32C1117.17 532.648 1116.98 532.132 1116.6 531.772C1116.24 531.412 1115.77 531.112 1115.19 530.872C1114.62 530.632 1114.02 530.38 1113.39 530.116C1112.7 529.924 1111.99 529.72 1111.27 529.504C1110.57 529.264 1109.92 528.964 1109.32 528.604C1108.75 528.22 1108.28 527.74 1107.92 527.164C1107.56 526.564 1107.38 525.796 1107.38 524.86C1107.38 523.948 1107.56 523.168 1107.92 522.52C1108.3 521.872 1108.8 521.344 1109.4 520.936C1110 520.504 1110.67 520.192 1111.41 520C1112.16 519.808 1112.9 519.712 1113.64 519.712C1114.72 519.712 1115.65 519.856 1116.42 520.144C1117.18 520.432 1117.98 520.756 1118.79 521.116V523.708C1117.88 523.228 1117.06 522.844 1116.34 522.556C1115.62 522.244 1114.77 522.088 1113.79 522.088C1112.8 522.088 1111.92 522.292 1111.12 522.7C1110.36 523.084 1109.97 523.684 1109.97 524.5C1109.97 525.172 1110.16 525.712 1110.55 526.12C1110.96 526.504 1111.48 526.816 1112.13 527.056C1112.78 527.272 1113.48 527.488 1114.22 527.704C1114.82 527.896 1115.44 528.112 1116.09 528.352C1116.74 528.568 1117.34 528.868 1117.89 529.252C1118.44 529.612 1118.89 530.092 1119.22 530.692C1119.58 531.292 1119.76 532.06 1119.76 532.996C1119.76 534.268 1119.44 535.324 1118.79 536.164C1118.14 536.98 1117.32 537.58 1116.31 537.964C1115.32 538.348 1114.32 538.54 1113.28 538.54ZM1132.04 538.54C1130.34 538.54 1128.86 538.192 1127.61 537.496C1126.37 536.776 1125.41 535.708 1124.73 534.292C1124.06 532.876 1123.73 531.112 1123.73 529C1123.73 525.904 1124.42 523.588 1125.81 522.052C1127.23 520.492 1129.16 519.712 1131.61 519.712C1133.53 519.712 1135.07 520.144 1136.22 521.008C1137.39 521.872 1138.23 523.036 1138.74 524.5C1139.24 525.964 1139.48 527.62 1139.46 529.468H1125.02L1125.2 527.092H1137.77L1136.76 527.452C1136.69 525.652 1136.23 524.308 1135.39 523.42C1134.57 522.532 1133.31 522.088 1131.61 522.088C1130.43 522.088 1129.45 522.304 1128.66 522.736C1127.89 523.168 1127.31 523.924 1126.93 525.004C1126.55 526.06 1126.35 527.548 1126.35 529.468C1126.35 531.652 1126.86 533.32 1127.87 534.472C1128.9 535.6 1130.34 536.164 1132.19 536.164C1133.07 536.164 1133.89 536.104 1134.63 535.984C1135.38 535.84 1136.06 535.648 1136.69 535.408C1137.31 535.168 1137.86 534.904 1138.34 534.616V537.28C1137.48 537.688 1136.52 538 1135.46 538.216C1134.43 538.432 1133.29 538.54 1132.04 538.54ZM1145.97 538V522.412H1142.87V520.036H1145.97V519.064C1145.97 517.744 1146.11 516.676 1146.4 515.86C1146.71 515.02 1147.11 514.372 1147.59 513.916C1148.07 513.436 1148.57 513.1 1149.1 512.908C1149.63 512.692 1150.13 512.572 1150.61 512.548C1151.09 512.5 1151.48 512.476 1151.77 512.476C1152.1 512.476 1152.41 512.5 1152.7 512.548C1152.99 512.572 1153.25 512.62 1153.49 512.692V514.996C1153.33 514.948 1153.13 514.912 1152.92 514.888C1152.7 514.864 1152.46 514.852 1152.2 514.852C1151.79 514.852 1151.37 514.876 1150.94 514.924C1150.51 514.972 1150.11 515.128 1149.75 515.392C1149.39 515.632 1149.1 516.04 1148.89 516.616C1148.67 517.168 1148.56 517.972 1148.56 519.028V520.036H1153.49V522.412H1148.56V538H1145.97ZM1165.34 538.54C1163.75 538.54 1162.4 538.264 1161.27 537.712C1160.14 537.16 1159.28 536.356 1158.68 535.3C1158.1 534.244 1157.81 532.948 1157.81 531.412V520.036H1160.41V530.836C1160.41 532.66 1160.8 534.004 1161.59 534.868C1162.41 535.708 1163.66 536.128 1165.34 536.128C1167.02 536.128 1168.25 535.708 1169.05 534.868C1169.86 534.004 1170.27 532.66 1170.27 530.836V520.036H1172.86V531.412C1172.86 533.692 1172.2 535.456 1170.88 536.704C1169.59 537.928 1167.74 538.54 1165.34 538.54ZM1181.22 538H1178.63V513.196H1181.22V538ZM1197.43 521.476C1198.01 521.188 1198.6 520.936 1199.2 520.72C1199.82 520.48 1200.45 520.288 1201.07 520.144C1201.72 520 1202.37 519.892 1203.01 519.82C1203.69 519.748 1204.36 519.712 1205.03 519.712C1206.78 519.712 1208.17 519.976 1209.21 520.504C1210.24 521.008 1210.98 521.752 1211.44 522.736C1211.92 523.72 1212.16 524.908 1212.16 526.3V538H1209.57V526.3C1209.57 525.868 1209.51 525.412 1209.39 524.932C1209.29 524.452 1209.09 523.996 1208.77 523.564C1208.46 523.108 1207.98 522.748 1207.33 522.484C1206.69 522.196 1205.82 522.052 1204.74 522.052C1204 522.052 1203.23 522.112 1202.44 522.232C1201.65 522.352 1200.84 522.532 1200.03 522.772V538H1197.43V521.476ZM1225.31 538.54C1222.5 538.54 1220.41 537.712 1219.05 536.056C1217.7 534.376 1217.03 532.048 1217.03 529.072C1217.03 525.952 1217.74 523.612 1219.15 522.052C1220.59 520.492 1222.62 519.712 1225.24 519.712C1227.18 519.712 1228.77 520.108 1229.99 520.9C1231.21 521.668 1232.11 522.76 1232.69 524.176C1233.27 525.568 1233.55 527.2 1233.55 529.072C1233.55 532.024 1232.83 534.34 1231.39 536.02C1229.98 537.7 1227.95 538.54 1225.31 538.54ZM1225.27 536.164C1226.74 536.164 1227.88 535.852 1228.69 535.228C1229.51 534.58 1230.09 533.728 1230.42 532.672C1230.78 531.592 1230.96 530.392 1230.96 529.072C1230.96 527.656 1230.78 526.432 1230.42 525.4C1230.06 524.344 1229.46 523.528 1228.62 522.952C1227.81 522.376 1226.69 522.088 1225.27 522.088C1223.83 522.088 1222.71 522.4 1221.89 523.024C1221.07 523.648 1220.49 524.488 1220.13 525.544C1219.79 526.576 1219.62 527.752 1219.62 529.072C1219.62 531.184 1220.04 532.9 1220.88 534.22C1221.72 535.516 1223.19 536.164 1225.27 536.164ZM1238.57 538V520.036H1241.16V538H1238.57ZM1238.43 516.832V513.988H1241.31V516.832H1238.43ZM1252.15 538.54C1250.86 538.54 1249.76 538.408 1248.88 538.144C1248.01 537.88 1247.11 537.508 1246.18 537.028V534.292C1246.92 534.7 1247.58 535.048 1248.16 535.336C1248.73 535.624 1249.32 535.84 1249.92 535.984C1250.52 536.104 1251.2 536.164 1251.97 536.164C1253.17 536.164 1254.14 535.9 1254.89 535.372C1255.66 534.844 1256.04 534.16 1256.04 533.32C1256.04 532.648 1255.85 532.132 1255.46 531.772C1255.1 531.412 1254.64 531.112 1254.06 530.872C1253.48 530.632 1252.88 530.38 1252.26 530.116C1251.56 529.924 1250.86 529.72 1250.14 529.504C1249.44 529.264 1248.79 528.964 1248.19 528.604C1247.62 528.22 1247.15 527.74 1246.79 527.164C1246.43 526.564 1246.25 525.796 1246.25 524.86C1246.25 523.948 1246.43 523.168 1246.79 522.52C1247.17 521.872 1247.66 521.344 1248.26 520.936C1248.86 520.504 1249.54 520.192 1250.28 520C1251.02 519.808 1251.77 519.712 1252.51 519.712C1253.59 519.712 1254.52 519.856 1255.28 520.144C1256.05 520.432 1256.84 520.756 1257.66 521.116V523.708C1256.75 523.228 1255.93 522.844 1255.21 522.556C1254.49 522.244 1253.64 522.088 1252.66 522.088C1251.67 522.088 1250.78 522.292 1249.99 522.7C1249.22 523.084 1248.84 523.684 1248.84 524.5C1248.84 525.172 1249.03 525.712 1249.42 526.12C1249.82 526.504 1250.35 526.816 1251 527.056C1251.65 527.272 1252.34 527.488 1253.09 527.704C1253.69 527.896 1254.31 528.112 1254.96 528.352C1255.61 528.568 1256.21 528.868 1256.76 529.252C1257.31 529.612 1257.76 530.092 1258.09 530.692C1258.45 531.292 1258.63 532.06 1258.63 532.996C1258.63 534.268 1258.31 535.324 1257.66 536.164C1257.01 536.98 1256.18 537.58 1255.18 537.964C1254.19 538.348 1253.18 538.54 1252.15 538.54ZM1270.91 538.54C1269.21 538.54 1267.73 538.192 1266.48 537.496C1265.23 536.776 1264.27 535.708 1263.6 534.292C1262.93 532.876 1262.59 531.112 1262.59 529C1262.59 525.904 1263.29 523.588 1264.68 522.052C1266.1 520.492 1268.03 519.712 1270.48 519.712C1272.4 519.712 1273.93 520.144 1275.09 521.008C1276.26 521.872 1277.1 523.036 1277.61 524.5C1278.11 525.964 1278.35 527.62 1278.33 529.468H1263.89L1264.07 527.092H1276.63L1275.63 527.452C1275.55 525.652 1275.1 524.308 1274.26 523.42C1273.44 522.532 1272.18 522.088 1270.48 522.088C1269.3 522.088 1268.32 522.304 1267.53 522.736C1266.76 523.168 1266.18 523.924 1265.8 525.004C1265.41 526.06 1265.22 527.548 1265.22 529.468C1265.22 531.652 1265.73 533.32 1266.73 534.472C1267.77 535.6 1269.21 536.164 1271.05 536.164C1271.94 536.164 1272.76 536.104 1273.5 535.984C1274.25 535.84 1274.93 535.648 1275.55 535.408C1276.18 535.168 1276.73 534.904 1277.21 534.616V537.28C1276.35 537.688 1275.39 538 1274.33 538.216C1273.3 538.432 1272.16 538.54 1270.91 538.54ZM1288.26 538.54C1286.96 538.54 1285.87 538.408 1284.98 538.144C1284.12 537.88 1283.22 537.508 1282.28 537.028V534.292C1283.02 534.7 1283.68 535.048 1284.26 535.336C1284.84 535.624 1285.42 535.84 1286.02 535.984C1286.62 536.104 1287.31 536.164 1288.08 536.164C1289.28 536.164 1290.25 535.9 1290.99 535.372C1291.76 534.844 1292.14 534.16 1292.14 533.32C1292.14 532.648 1291.95 532.132 1291.57 531.772C1291.21 531.412 1290.74 531.112 1290.16 530.872C1289.59 530.632 1288.99 530.38 1288.36 530.116C1287.67 529.924 1286.96 529.72 1286.24 529.504C1285.54 529.264 1284.9 528.964 1284.3 528.604C1283.72 528.22 1283.25 527.74 1282.89 527.164C1282.53 526.564 1282.35 525.796 1282.35 524.86C1282.35 523.948 1282.53 523.168 1282.89 522.52C1283.28 521.872 1283.77 521.344 1284.37 520.936C1284.97 520.504 1285.64 520.192 1286.38 520C1287.13 519.808 1287.87 519.712 1288.62 519.712C1289.7 519.712 1290.62 519.856 1291.39 520.144C1292.16 520.432 1292.95 520.756 1293.76 521.116V523.708C1292.85 523.228 1292.04 522.844 1291.32 522.556C1290.6 522.244 1289.74 522.088 1288.76 522.088C1287.78 522.088 1286.89 522.292 1286.1 522.7C1285.33 523.084 1284.94 523.684 1284.94 524.5C1284.94 525.172 1285.14 525.712 1285.52 526.12C1285.93 526.504 1286.46 526.816 1287.1 527.056C1287.75 527.272 1288.45 527.488 1289.19 527.704C1289.79 527.896 1290.42 528.112 1291.06 528.352C1291.71 528.568 1292.31 528.868 1292.86 529.252C1293.42 529.612 1293.86 530.092 1294.2 530.692C1294.56 531.292 1294.74 532.06 1294.74 532.996C1294.74 534.268 1294.41 535.324 1293.76 536.164C1293.12 536.98 1292.29 537.58 1291.28 537.964C1290.3 538.348 1289.29 538.54 1288.26 538.54ZM1299.6 538V534.4H1303.2V538H1299.6Z" fill="#131313"/>
<path d="M1623.45 907.648C1623.45 908.651 1623.57 909.589 1623.8 910.464C1624.06 911.317 1624.42 912.064 1624.89 912.704C1625.36 913.323 1625.94 913.813 1626.65 914.176C1627.35 914.539 1628.15 914.72 1629.05 914.72C1629.86 914.72 1630.61 914.581 1631.29 914.304C1631.97 914.005 1632.57 913.579 1633.08 913.024C1633.59 912.469 1633.99 911.797 1634.26 911.008C1634.56 910.197 1634.71 909.269 1634.71 908.224C1634.75 907.179 1634.67 906.208 1634.46 905.312C1634.24 904.395 1633.9 903.595 1633.43 902.912C1632.96 902.229 1632.35 901.696 1631.61 901.312C1630.88 900.907 1630.03 900.704 1629.05 900.704C1628.17 900.704 1627.38 900.896 1626.68 901.28C1626 901.643 1625.41 902.144 1624.92 902.784C1624.45 903.403 1624.09 904.139 1623.83 904.992C1623.58 905.824 1623.45 906.709 1623.45 907.648ZM1623.45 916H1621.53V892.96H1623.45V902.08C1624.07 901.056 1624.91 900.288 1625.98 899.776C1627.06 899.243 1628.19 898.976 1629.37 898.976C1630.63 898.976 1631.71 899.221 1632.63 899.712C1633.57 900.181 1634.34 900.821 1634.94 901.632C1635.55 902.421 1636.01 903.349 1636.31 904.416C1636.61 905.483 1636.76 906.592 1636.76 907.744C1636.76 908.96 1636.62 910.101 1636.34 911.168C1636.07 912.235 1635.62 913.163 1635 913.952C1634.4 914.72 1633.63 915.328 1632.7 915.776C1631.76 916.224 1630.62 916.448 1629.27 916.448C1628.74 916.448 1628.19 916.373 1627.64 916.224C1627.09 916.075 1626.54 915.861 1626.01 915.584C1625.5 915.307 1625.02 914.965 1624.57 914.56C1624.14 914.133 1623.79 913.643 1623.51 913.088H1623.45V916ZM1640.74 920.512C1640.99 920.555 1641.25 920.597 1641.51 920.64C1641.78 920.683 1642.06 920.704 1642.34 920.704C1642.87 920.704 1643.31 920.533 1643.65 920.192C1643.99 919.851 1644.27 919.435 1644.48 918.944C1644.72 918.475 1644.91 917.973 1645.06 917.44C1645.21 916.928 1645.38 916.491 1645.57 916.128L1639.14 899.424H1641.28L1646.59 913.664L1651.91 899.424H1653.99L1647.81 915.776C1647.43 916.821 1647.05 917.76 1646.69 918.592C1646.35 919.424 1645.98 920.128 1645.57 920.704C1645.19 921.301 1644.75 921.749 1644.26 922.048C1643.79 922.368 1643.22 922.528 1642.56 922.528C1642.22 922.528 1641.89 922.507 1641.57 922.464C1641.27 922.421 1640.99 922.368 1640.74 922.304V920.512ZM1666.35 908.704C1666.35 909.429 1666.37 910.144 1666.41 910.848C1666.48 911.552 1666.64 912.192 1666.89 912.768C1667.17 913.323 1667.59 913.771 1668.14 914.112C1668.72 914.453 1669.51 914.624 1670.51 914.624C1672 914.624 1673.05 914.197 1673.64 913.344C1674.26 912.491 1674.57 911.253 1674.57 909.632V892.96H1676.75V909.696C1676.75 911.936 1676.23 913.653 1675.18 914.848C1674.14 916.021 1672.49 916.608 1670.25 916.608C1668.95 916.608 1667.91 916.395 1667.12 915.968C1666.33 915.52 1665.71 914.933 1665.26 914.208C1664.83 913.461 1664.55 912.619 1664.4 911.68C1664.25 910.72 1664.17 909.728 1664.17 908.704H1666.35ZM1692.62 907.296C1691.81 907.637 1690.99 907.861 1690.16 907.968C1689.32 908.075 1688.49 908.16 1687.66 908.224C1686.19 908.331 1685.04 908.661 1684.2 909.216C1683.39 909.771 1682.99 910.613 1682.99 911.744C1682.99 912.256 1683.08 912.704 1683.28 913.088C1683.49 913.451 1683.76 913.76 1684.08 914.016C1684.42 914.251 1684.8 914.432 1685.23 914.56C1685.68 914.667 1686.12 914.72 1686.57 914.72C1687.34 914.72 1688.09 914.624 1688.81 914.432C1689.54 914.24 1690.18 913.952 1690.73 913.568C1691.31 913.163 1691.77 912.661 1692.11 912.064C1692.45 911.445 1692.62 910.72 1692.62 909.888V907.296ZM1689.39 906.336C1689.75 906.293 1690.18 906.229 1690.67 906.144C1691.18 906.059 1691.6 905.941 1691.92 905.792C1692.24 905.643 1692.43 905.397 1692.49 905.056C1692.58 904.693 1692.62 904.363 1692.62 904.064C1692.62 903.083 1692.3 902.283 1691.66 901.664C1691.04 901.024 1689.99 900.704 1688.49 900.704C1687.83 900.704 1687.22 900.768 1686.67 900.896C1686.11 901.003 1685.62 901.205 1685.2 901.504C1684.79 901.781 1684.45 902.165 1684.17 902.656C1683.92 903.125 1683.75 903.723 1683.66 904.448H1681.71C1681.77 903.467 1682 902.635 1682.38 901.952C1682.76 901.248 1683.26 900.683 1683.85 900.256C1684.47 899.808 1685.18 899.488 1685.96 899.296C1686.78 899.083 1687.63 898.976 1688.52 898.976C1689.36 898.976 1690.14 899.072 1690.86 899.264C1691.61 899.435 1692.25 899.723 1692.78 900.128C1693.34 900.512 1693.76 901.035 1694.06 901.696C1694.38 902.357 1694.54 903.168 1694.54 904.128V913.152C1694.54 913.899 1694.67 914.379 1694.92 914.592C1695.2 914.784 1695.75 914.731 1696.56 914.432V915.936C1696.41 915.979 1696.18 916.043 1695.88 916.128C1695.61 916.213 1695.33 916.256 1695.05 916.256C1694.75 916.256 1694.47 916.224 1694.19 916.16C1693.87 916.117 1693.61 916.021 1693.42 915.872C1693.23 915.701 1693.07 915.509 1692.94 915.296C1692.83 915.061 1692.76 914.816 1692.72 914.56C1692.67 914.283 1692.65 913.995 1692.65 913.696C1691.84 914.592 1690.91 915.275 1689.87 915.744C1688.82 916.213 1687.69 916.448 1686.48 916.448C1685.75 916.448 1685.05 916.352 1684.36 916.16C1683.7 915.968 1683.12 915.669 1682.6 915.264C1682.09 914.859 1681.69 914.368 1681.39 913.792C1681.09 913.195 1680.94 912.491 1680.94 911.68C1680.94 908.864 1682.87 907.2 1686.73 906.688L1689.39 906.336ZM1701.47 916H1699.55V899.424H1701.47V901.728C1702.24 900.917 1703.03 900.256 1703.84 899.744C1704.67 899.232 1705.67 898.976 1706.82 898.976C1707.84 898.976 1708.79 899.157 1709.67 899.52C1710.54 899.861 1711.28 900.469 1711.87 901.344C1712.28 901.941 1712.51 902.56 1712.58 903.2C1712.66 903.819 1712.71 904.469 1712.71 905.152V916H1710.79V905.184C1710.79 903.691 1710.46 902.571 1709.79 901.824C1709.13 901.077 1708.03 900.704 1706.5 900.704C1705.9 900.704 1705.36 900.8 1704.87 900.992C1704.38 901.163 1703.93 901.397 1703.52 901.696C1703.14 901.995 1702.81 902.336 1702.53 902.72C1702.25 903.104 1702.04 903.509 1701.89 903.936C1701.7 904.469 1701.58 904.981 1701.54 905.472C1701.5 905.963 1701.47 906.496 1701.47 907.072V916ZM1719.26 916H1717.34V899.424H1719.26V901.728C1720.02 900.917 1720.81 900.256 1721.62 899.744C1722.46 899.232 1723.45 898.976 1724.6 898.976C1725.62 898.976 1726.57 899.157 1727.45 899.52C1728.32 899.861 1729.06 900.469 1729.66 901.344C1730.06 901.941 1730.3 902.56 1730.36 903.2C1730.44 903.819 1730.49 904.469 1730.49 905.152V916H1728.57V905.184C1728.57 903.691 1728.24 902.571 1727.58 901.824C1726.91 901.077 1725.82 900.704 1724.28 900.704C1723.68 900.704 1723.14 900.8 1722.65 900.992C1722.16 901.163 1721.71 901.397 1721.3 901.696C1720.92 901.995 1720.59 902.336 1720.31 902.72C1720.03 903.104 1719.82 903.509 1719.67 903.936C1719.48 904.469 1719.36 904.981 1719.32 905.472C1719.28 905.963 1719.26 906.496 1719.26 907.072V916ZM1745.96 907.296C1745.15 907.637 1744.33 907.861 1743.5 907.968C1742.67 908.075 1741.84 908.16 1741 908.224C1739.53 908.331 1738.38 908.661 1737.55 909.216C1736.74 909.771 1736.33 910.613 1736.33 911.744C1736.33 912.256 1736.43 912.704 1736.62 913.088C1736.83 913.451 1737.1 913.76 1737.42 914.016C1737.76 914.251 1738.15 914.432 1738.57 914.56C1739.02 914.667 1739.47 914.72 1739.92 914.72C1740.68 914.72 1741.43 914.624 1742.16 914.432C1742.88 914.24 1743.52 913.952 1744.08 913.568C1744.65 913.163 1745.11 912.661 1745.45 912.064C1745.79 911.445 1745.96 910.72 1745.96 909.888V907.296ZM1742.73 906.336C1743.1 906.293 1743.52 906.229 1744.01 906.144C1744.52 906.059 1744.94 905.941 1745.26 905.792C1745.58 905.643 1745.77 905.397 1745.84 905.056C1745.92 904.693 1745.96 904.363 1745.96 904.064C1745.96 903.083 1745.64 902.283 1745 901.664C1744.39 901.024 1743.33 900.704 1741.84 900.704C1741.18 900.704 1740.57 900.768 1740.01 900.896C1739.46 901.003 1738.97 901.205 1738.54 901.504C1738.14 901.781 1737.79 902.165 1737.52 902.656C1737.26 903.125 1737.09 903.723 1737 904.448H1735.05C1735.12 903.467 1735.34 902.635 1735.72 901.952C1736.11 901.248 1736.6 900.683 1737.2 900.256C1737.82 899.808 1738.52 899.488 1739.31 899.296C1740.12 899.083 1740.97 898.976 1741.87 898.976C1742.7 898.976 1743.48 899.072 1744.2 899.264C1744.95 899.435 1745.59 899.723 1746.12 900.128C1746.68 900.512 1747.11 901.035 1747.4 901.696C1747.72 902.357 1747.88 903.168 1747.88 904.128V913.152C1747.88 913.899 1748.01 914.379 1748.27 914.592C1748.55 914.784 1749.09 914.731 1749.9 914.432V915.936C1749.75 915.979 1749.53 916.043 1749.23 916.128C1748.95 916.213 1748.67 916.256 1748.4 916.256C1748.1 916.256 1747.81 916.224 1747.53 916.16C1747.21 916.117 1746.96 916.021 1746.76 915.872C1746.57 915.701 1746.41 915.509 1746.28 915.296C1746.18 915.061 1746.1 914.816 1746.06 914.56C1746.02 914.283 1746 913.995 1746 913.696C1745.19 914.592 1744.26 915.275 1743.21 915.744C1742.17 916.213 1741.04 916.448 1739.82 916.448C1739.1 916.448 1738.39 916.352 1737.71 916.16C1737.05 915.968 1736.46 915.669 1735.95 915.264C1735.44 914.859 1735.03 914.368 1734.73 913.792C1734.43 913.195 1734.28 912.491 1734.28 911.68C1734.28 908.864 1736.22 907.2 1740.08 906.688L1742.73 906.336ZM1758.72 916.064C1758.49 916.107 1758.18 916.181 1757.79 916.288C1757.41 916.395 1756.98 916.448 1756.51 916.448C1755.55 916.448 1754.82 916.213 1754.31 915.744C1753.82 915.253 1753.57 914.389 1753.57 913.152V901.024H1751.23V899.424H1753.57V894.816H1755.49V899.424H1758.59V901.024H1755.49V912.384C1755.49 912.789 1755.5 913.141 1755.52 913.44C1755.54 913.739 1755.61 913.984 1755.71 914.176C1755.82 914.368 1755.98 914.507 1756.19 914.592C1756.43 914.677 1756.75 914.72 1757.15 914.72C1757.41 914.72 1757.67 914.699 1757.92 914.656C1758.2 914.613 1758.47 914.56 1758.72 914.496V916.064ZM1761.53 916V899.424H1763.45V916H1761.53ZM1761.43 895.808V892.96H1763.55V895.808H1761.43ZM1770.26 916H1768.34V899.424H1770.26V901.728C1771.02 900.917 1771.81 900.256 1772.62 899.744C1773.46 899.232 1774.45 898.976 1775.6 898.976C1776.62 898.976 1777.57 899.157 1778.45 899.52C1779.32 899.861 1780.06 900.469 1780.66 901.344C1781.06 901.941 1781.3 902.56 1781.36 903.2C1781.44 903.819 1781.49 904.469 1781.49 905.152V916H1779.57V905.184C1779.57 903.691 1779.24 902.571 1778.58 901.824C1777.91 901.077 1776.82 900.704 1775.28 900.704C1774.68 900.704 1774.14 900.8 1773.65 900.992C1773.16 901.163 1772.71 901.397 1772.3 901.696C1771.92 901.995 1771.59 902.336 1771.31 902.72C1771.03 903.104 1770.82 903.509 1770.67 903.936C1770.48 904.469 1770.36 904.981 1770.32 905.472C1770.28 905.963 1770.26 906.496 1770.26 907.072V916ZM1797.49 895.904H1797.42V916H1795.25V892.96H1797.71L1811.02 913.088H1811.09V892.96H1813.26V916H1810.73L1797.49 895.904ZM1828.96 907.296C1828.15 907.637 1827.33 907.861 1826.5 907.968C1825.67 908.075 1824.84 908.16 1824 908.224C1822.53 908.331 1821.38 908.661 1820.55 909.216C1819.74 909.771 1819.33 910.613 1819.33 911.744C1819.33 912.256 1819.43 912.704 1819.62 913.088C1819.83 913.451 1820.1 913.76 1820.42 914.016C1820.76 914.251 1821.15 914.432 1821.57 914.56C1822.02 914.667 1822.47 914.72 1822.92 914.72C1823.68 914.72 1824.43 914.624 1825.16 914.432C1825.88 914.24 1826.52 913.952 1827.08 913.568C1827.65 913.163 1828.11 912.661 1828.45 912.064C1828.79 911.445 1828.96 910.72 1828.96 909.888V907.296ZM1825.73 906.336C1826.1 906.293 1826.52 906.229 1827.01 906.144C1827.52 906.059 1827.94 905.941 1828.26 905.792C1828.58 905.643 1828.77 905.397 1828.84 905.056C1828.92 904.693 1828.96 904.363 1828.96 904.064C1828.96 903.083 1828.64 902.283 1828 901.664C1827.39 901.024 1826.33 900.704 1824.84 900.704C1824.18 900.704 1823.57 900.768 1823.01 900.896C1822.46 901.003 1821.97 901.205 1821.54 901.504C1821.14 901.781 1820.79 902.165 1820.52 902.656C1820.26 903.125 1820.09 903.723 1820 904.448H1818.05C1818.12 903.467 1818.34 902.635 1818.72 901.952C1819.11 901.248 1819.6 900.683 1820.2 900.256C1820.82 899.808 1821.52 899.488 1822.31 899.296C1823.12 899.083 1823.97 898.976 1824.87 898.976C1825.7 898.976 1826.48 899.072 1827.2 899.264C1827.95 899.435 1828.59 899.723 1829.12 900.128C1829.68 900.512 1830.11 901.035 1830.4 901.696C1830.72 902.357 1830.88 903.168 1830.88 904.128V913.152C1830.88 913.899 1831.01 914.379 1831.27 914.592C1831.55 914.784 1832.09 914.731 1832.9 914.432V915.936C1832.75 915.979 1832.53 916.043 1832.23 916.128C1831.95 916.213 1831.67 916.256 1831.4 916.256C1831.1 916.256 1830.81 916.224 1830.53 916.16C1830.21 916.117 1829.96 916.021 1829.76 915.872C1829.57 915.701 1829.41 915.509 1829.28 915.296C1829.18 915.061 1829.1 914.816 1829.06 914.56C1829.02 914.283 1829 913.995 1829 913.696C1828.19 914.592 1827.26 915.275 1826.21 915.744C1825.17 916.213 1824.04 916.448 1822.82 916.448C1822.1 916.448 1821.39 916.352 1820.71 916.16C1820.05 915.968 1819.46 915.669 1818.95 915.264C1818.44 914.859 1818.03 914.368 1817.73 913.792C1817.43 913.195 1817.28 912.491 1817.28 911.68C1817.28 908.864 1819.22 907.2 1823.08 906.688L1825.73 906.336ZM1835.62 916V899.424H1837.54V916H1835.62ZM1835.53 895.808V892.96H1837.64V895.808H1835.53ZM1844.09 916H1842.17V899.424H1844.09V901.92H1844.16C1844.65 900.96 1845.35 900.235 1846.27 899.744C1847.19 899.232 1848.19 898.976 1849.28 898.976C1850.05 898.976 1850.7 899.061 1851.23 899.232C1851.76 899.403 1852.21 899.637 1852.57 899.936C1852.96 900.213 1853.27 900.544 1853.5 900.928C1853.76 901.312 1853.97 901.728 1854.14 902.176C1854.7 901.088 1855.43 900.288 1856.35 899.776C1857.29 899.243 1858.35 898.976 1859.55 898.976C1860.68 898.976 1861.58 899.168 1862.24 899.552C1862.92 899.915 1863.44 900.405 1863.81 901.024C1864.17 901.621 1864.4 902.315 1864.51 903.104C1864.64 903.893 1864.7 904.704 1864.7 905.536V916H1862.78V904.544C1862.78 903.349 1862.53 902.411 1862.01 901.728C1861.52 901.045 1860.59 900.704 1859.23 900.704C1858.53 900.704 1857.84 900.864 1857.18 901.184C1856.54 901.483 1855.98 901.952 1855.49 902.592C1855.27 902.869 1855.09 903.2 1854.94 903.584C1854.81 903.947 1854.71 904.331 1854.62 904.736C1854.54 905.141 1854.47 905.547 1854.43 905.952C1854.41 906.357 1854.4 906.731 1854.4 907.072V916H1852.48V904.544C1852.48 903.349 1852.22 902.411 1851.71 901.728C1851.22 901.045 1850.29 900.704 1848.93 900.704C1848.22 900.704 1847.54 900.864 1846.88 901.184C1846.24 901.483 1845.67 901.952 1845.18 902.592C1844.97 902.869 1844.79 903.2 1844.64 903.584C1844.51 903.947 1844.4 904.331 1844.32 904.736C1844.23 905.141 1844.17 905.547 1844.12 905.952C1844.1 906.357 1844.09 906.731 1844.09 907.072V916Z" fill="#555555"/>
<path d="M459.765 628.771C454.852 629.689 446.459 629.945 434.587 629.538C422.995 629.287 409.62 627.307 394.463 623.597C379.306 619.885 363.845 613.439 348.083 604.256C324.097 590.108 304.733 573.595 289.993 554.719C275.687 535.718 265.815 515.347 260.375 493.606C255.215 472.021 254.298 450.059 257.625 427.721C260.952 405.383 268.473 383.741 280.188 362.795C293.309 339.335 308.827 319.782 326.744 304.137C344.939 288.648 364.583 277.453 385.676 270.55C407.048 263.804 429.137 261.676 451.944 264.165C474.751 266.654 497.325 274.147 519.669 286.643C540.336 298.202 557.067 311.226 569.863 325.715C582.658 340.204 592.286 353.472 598.748 365.519L542.77 409.557C538.755 400.346 532.445 389.667 523.839 377.521C515.669 365.251 504.043 354.899 488.961 346.465C477.231 339.904 464.514 336.092 450.81 335.027C437.542 333.839 424.219 335.371 410.842 339.622C397.745 344.029 385.463 350.91 373.999 360.264C362.691 369.339 353.131 380.859 345.321 394.823C337.043 409.625 331.561 424.342 328.878 438.973C326.474 453.761 326.822 467.889 329.923 481.356C333.18 494.543 339.067 506.635 347.583 517.631C356.378 528.783 367.898 538.343 382.141 546.309C398.619 555.525 414.207 560.759 428.905 562.013C443.603 563.267 455.664 562.68 465.089 560.251L459.765 628.771Z" fill="url(#paint0_linear_1_53)"/>
<path d="M427.24 743.333L548.2 423.173H633.16L746.44 743.333H666.76L564.52 441.413L602.44 438.053L500.68 743.333H427.24ZM495.4 674.213L511.24 617.093H656.68L663.88 674.213H495.4Z" fill="url(#paint1_linear_1_53)"/>
<defs>
<linearGradient id="paint0_linear_1_53" x1="379.335" y1="479.843" x2="379.009" y2="480.425" gradientUnits="userSpaceOnUse">
<stop stop-color="#696969"/>
<stop offset="1" stop-color="#424242" stop-opacity="0.69"/>
</linearGradient>
<linearGradient id="paint1_linear_1_53" x1="587" y1="562" x2="587" y2="562.667" gradientUnits="userSpaceOnUse">
<stop stop-color="#696969"/>
<stop offset="1" stop-color="#424242" stop-opacity="0.69"/>
</linearGradient>
</defs>
</svg>
